<?xml version="1.0" standalone="no"?><!DOCTYPE svg PUBLIC "-//W3C//DTD SVG 1.1//EN" "http://www.w3.org/Graphics/SVG/1.1/DTD/svg11.dtd"><svg t="1680525277767" class="icon" viewBox="0 0 1145 1024" version="1.1" xmlns="http://www.w3.org/2000/svg" p-id="2845" xmlns:xlink="http://www.w3.org/1999/xlink" width="279.541015625" height="250"><path d="M214.162286 87.771429h26.331428v26.331428h-26.331428z" fill="#000000" p-id="2846"></path><path d="M261.558857 938.76419h600.356572L877.714286 999.619048H243.809524z" fill="#FFA700" p-id="2847"></path><path d="M150.966857 87.771429h26.331429v26.331428h-26.331429z" fill="#000000" p-id="2848"></path><path d="M402.285714 803.986286L356.352 926.47619h401.993143l-36.864-122.489904z" fill="#38CE9F" p-id="2849"></path><path d="M87.771429 87.771429h26.331428v26.331428H87.771429z" fill="#000000" p-id="2850"></path><path d="M0 24.380952h1097.142857v755.809524H0z" fill="#0063BC" p-id="2851"></path><path d="M863.670857 191.341714c8.777143 5.266286 19.309714 8.777143 29.842286 8.777143a55.466667 55.466667 0 0 0 56.173714-56.173714A55.466667 55.466667 0 0 0 893.513143 87.771429a55.466667 55.466667 0 0 0-56.173714 56.173714c0 10.532571 3.510857 21.065143 8.777142 29.842286l-135.168 135.168a59.172571 59.172571 0 0 0-29.842285-8.777143c-26.331429 0-49.152 19.309714-54.418286 43.885714h-122.88a56.417524 56.417524 0 0 0-54.418286-43.885714 55.466667 55.466667 0 0 0-56.173714 56.173714c0 10.532571 3.510857 21.065143 8.777143 29.842286L263.314286 524.873143a59.172571 59.172571 0 0 0-29.842286-8.777143 55.466667 55.466667 0 0 0-56.173714 56.173714 55.466667 55.466667 0 0 0 56.173714 56.173715 55.466667 55.466667 0 0 0 56.173714-56.173715c0-10.532571-3.510857-21.065143-8.777143-28.086857l140.434286-140.434286c8.777143 5.266286 19.309714 8.777143 29.842286 8.777143 26.331429 0 47.396571-17.554286 54.418286-42.130285h122.88c7.021714 24.576 28.086857 42.130286 54.418285 42.130285a55.466667 55.466667 0 0 0 56.173715-56.173714c0-10.532571-3.510857-21.065143-8.777143-29.842286l133.412571-135.168z m28.086857-78.994285c17.554286 0 29.842286 14.043429 29.842286 29.842285s-14.043429 29.842286-29.842286 29.842286c-17.554286 0-29.842286-14.043429-29.842285-29.842286s14.043429-29.842286 29.842285-29.842285zM231.716571 603.867429c-17.554286 0-29.842286-14.043429-29.842285-29.842286 0-17.554286 14.043429-29.842286 29.842285-29.842286s29.842286 14.043429 29.842286 29.842286-14.043429 29.842286-29.842286 29.842286z m186.075429-247.515429c1.755429-19.309714 15.798857-31.597714 29.842286-29.842286 17.554286 1.755429 29.842286 14.043429 29.842285 31.597715-8.777143 47.396571-61.44 26.331429-59.684571-1.755429z m263.314286 29.842286c-15.798857 0-29.842286-14.043429-29.842286-29.842286 0-17.554286 14.043429-29.842286 29.842286-29.842286 17.554286 1.755429 28.086857 10.532571 29.842285 29.842286 0 15.798857-14.043429 29.842286-29.842285 29.842286z" fill="#FFFFFF" p-id="2852"></path><path d="M1123.474286 756.589714V56.173714c0-26.331429-21.065143-47.396571-47.396572-47.396571H47.396571C21.065143 8.777143 0 29.842286 0 56.173714v700.416c0 26.331429 21.065143 47.396571 47.396571 47.396572h328.265143L345.819429 921.6h-80.749715c-15.798857 0-29.842286 14.043429-29.842285 29.842286V1009.371429h653.019428v-57.929143c0-15.798857-14.043429-29.842286-29.842286-29.842286h-80.749714l-29.842286-117.613714h328.265143c26.331429 0 47.396571-21.065143 47.396572-47.396572zM858.404571 947.931429c1.755429 0 3.510857 1.755429 3.510858 3.510857v31.597714H259.803429v-31.597714c0-1.755429 1.755429-3.510857 3.510857-3.510857h595.090285z m-107.081142-26.331429H372.150857l29.842286-117.613714h319.488l29.842286 117.613714zM1097.142857 756.589714c0 12.288-8.777143 21.065143-21.065143 21.065143H47.396571c-12.288 0-21.065143-8.777143-21.065142-21.065143v-38.619428h1072.566857v38.619428H1097.142857z m0-64.950857H26.331429V56.173714c0-12.288 8.777143-21.065143 21.065142-21.065143h1028.681143c12.288 0 21.065143 8.777143 21.065143 21.065143v635.465143z" fill="#000000" p-id="2853"></path><path d="M87.771429 173.787429h268.580571v26.331428H87.771429zM87.771429 236.982857h210.651428v26.331429H87.771429zM758.345143 591.579429H1026.925714v26.331428H758.345143zM816.274286 528.384h210.651428v26.331429h-210.651428z" fill="#FFFFFF" p-id="2854"></path></svg>